<svg width="250" height="250" viewBox="0 0 250 250" fill="none" xmlns="http://www.w3.org/2000/svg">
<g clip-path="url(#clip0_12_2)">
<path d="M189.863 110.793C189.863 110.793 189.309 73.4414 152.801 43.5547L171.516 40.2695L182.297 42.7891L194.984 47.5508L204.797 57.7617L207.191 66.7734L211.098 77.4688L210.086 88.5234L205.398 99.8281L199.012 108.449L189.855 110.793" fill="#E79524"/>
<path d="M184.648 90.2344C184.648 90.2344 181.895 74.4531 168.945 61.2734L174.305 60.1797L177.695 61.4141L181.824 63.6172L185.461 68.0977L186.801 71.9219L188.715 76.5078L189.168 81.1523L188.547 85.8477L187.238 89.3945L184.664 90.2344" fill="#E9B93B"/>
<path d="M156.199 40.7774C154.762 41.4414 153.363 42.2149 152.055 43.0664L150.746 43.918L152.07 44.6289C153.781 45.5547 155.484 46.6211 157.164 47.793L157.738 48.1914L158.363 47.8008C159.355 47.1641 160.395 46.5977 161.449 46.1016C176.797 38.8867 196.219 46.3828 204.73 62.7969C206.039 65.332 207.039 67.9688 207.719 70.6485C211.387 85.293 205.082 99.6914 192.371 105.656C191.668 105.984 190.945 106.281 190.211 106.559L190.227 106.512L188.91 106.727L187.961 106.859L187.93 107.676C187.93 108.066 187.902 108.457 187.887 108.836L187.809 109.297L187.855 109.289C187.773 110.516 187.648 111.703 187.48 112.859L187.277 114.285L188.785 113.824C190.301 113.34 191.793 112.766 193.227 112.094C208.617 104.859 216.305 87.5196 211.891 69.9453C211.077 66.7085 209.89 63.577 208.355 60.6133C198.145 40.9258 174.738 32.0391 156.184 40.7617" fill="#E9B93B"/>
<path opacity="0.67" d="M120.934 250.016C144.203 250.016 163.066 244.937 163.066 238.672C163.066 232.407 144.203 227.328 120.934 227.328C97.6643 227.328 78.8008 232.407 78.8008 238.672C78.8008 244.937 97.6643 250.016 120.934 250.016Z" fill="#BAC4C9" fill-opacity="0.627"/>
<path opacity="0.67" d="M128.086 235C128.086 237.016 124.891 238.648 120.93 238.648C116.984 238.648 113.777 237.016 113.777 235V164.531C113.777 162.523 116.992 160.887 120.93 160.887C124.891 160.887 128.086 162.523 128.086 164.531V235Z" fill="#BAC4C9" fill-opacity="0.627"/>
<path opacity="0.67" d="M203.516 60.5234C203.516 127.707 166.555 182.164 120.938 182.164C75.332 182.164 38.3594 127.711 38.3594 60.5234" fill="#BAC4C9" fill-opacity="0.627"/>
<path d="M203.32 -0.800781C178.426 0 154.109 9.96875 141.461 34.3203C132.57 51.4258 129.324 71.4023 124.34 89.9844C118.723 110.875 113.93 131.555 110.504 152.953C108.973 162.477 122.984 164 124.508 154.484C130.035 120.105 138.523 85.1875 149.051 52.0234C157.578 25.125 180.379 14.7773 205.211 13.9688C214.305 13.6797 212.305 -1.08984 203.32 -0.789063" fill="#068777"/>
<path opacity="0.6" d="M185.391 68.8945C185.391 126.07 156.535 172.422 120.938 172.422C85.332 172.422 56.4883 126.07 56.4883 68.8945" fill="#F2542D"/>
</g>
<defs>
<clipPath id="clip0_12_2">
<rect width="250" height="250" fill="white"/>
</clipPath>
</defs>
</svg>
